<svg width="46" height="39" viewBox="0 0 46 39" fill="none" xmlns="http://www.w3.org/2000/svg">
<path d="M6.26953 1.52344H1.66016V37.0703H6.26953V38.5938H0V0H6.26953V1.52344Z" fill="white"/>
<path d="M21.2695 19.3262C21.2695 18.8965 21.4128 18.5254 21.6992 18.2129C21.9987 17.9004 22.3763 17.7441 22.832 17.7441C23.2878 17.7441 23.6654 17.9004 23.9648 18.2129C24.2643 18.5124 24.4141 18.8835 24.4141 19.3262C24.4141 19.7559 24.2578 20.1204 23.9453 20.4199C23.6458 20.7064 23.2747 20.8496 22.832 20.8496C22.3763 20.8496 21.9987 20.7064 21.6992 20.4199C21.4128 20.1204 21.2695 19.7559 21.2695 19.3262Z" fill="white"/>
<path d="M39.4141 1.52344H44.0234V37.0703H39.4141V38.5938H45.6836V0H39.4141V1.52344Z" fill="white"/>
</svg>
